HIERARCHY
ROOT Hips
{
	OFFSET 0.000000 97.167313 0.000000
	CHANNELS 6 Xposition Yposition Zposition Xrotation Yrotation Zrotation
	JOINT Spine
	{
		OFFSET 0.000000 13.784798 0.064400
		CHANNELS 3 Xrotation Yrotation Zrotation
		JOINT Spine1
		{
			OFFSET 0.000000 12.037903 0.404700
			CHANNELS 3 Xrotation Yrotation Zrotation
			JOINT Spine2
			{
				OFFSET 0.000000 17.795601 0.420200
				CHANNELS 3 Xrotation Yrotation Zrotation
				JOINT Neck
				{
					OFFSET 0.000000 39.131302 11.954600
					CHANNELS 3 Xrotation Yrotation Zrotation
					JOINT Head
					{
						OFFSET 0.000000 14.456192 15.627699
						CHANNELS 3 Xrotation Yrotation Zrotation
						JOINT HeadTop_End
						{
							OFFSET 0.000000 15.703506 7.603401
							CHANNELS 3 Xrotation Yrotation Zrotation
							End Site
							{
								OFFSET 0.000000 17.447403 0.000000
							}
						}
					}
				}
				JOINT LeftShoulder
				{
					OFFSET 17.399500 24.608795 1.168800
					CHANNELS 3 Xrotation Yrotation Zrotation
					JOINT LeftArm
					{
						OFFSET 18.980635 5.765305 1.818600
						CHANNELS 3 Xrotation Yrotation Zrotation
						JOINT LeftForeArm
						{
							OFFSET 49.290169 0.000000 0.000000
							CHANNELS 3 Xrotation Yrotation Zrotation
							JOINT LeftHand
							{
								OFFSET 31.562012 0.000000 0.000000
								CHANNELS 3 Xrotation Yrotation Zrotation
								JOINT LeftHandThumb1
								{
									OFFSET 6.133995 -4.388519 7.076070
									CHANNELS 3 Xrotation Yrotation Zrotation
									JOINT LeftHandThumb2
									{
										OFFSET 6.037666 -3.485840 3.485847
										CHANNELS 3 Xrotation Yrotation Zrotation
										JOINT LeftHandThumb3
										{
											OFFSET 6.496506 -3.750763 3.750761
											CHANNELS 3 Xrotation Yrotation Zrotation
											JOINT LeftHandThumb4
											{
												OFFSET 5.616882 -3.242905 3.242910
												CHANNELS 3 Xrotation Yrotation Zrotation
												End Site
												{
													OFFSET -1.254608 7.132141 0.375429
												}
											}
										}
									}
								}
								JOINT LeftHandPinky1
								{
									OFFSET 18.920792 -0.453171 -11.426712
									CHANNELS 3 Xrotation Yrotation Zrotation
									JOINT LeftHandPinky2
									{
										OFFSET 4.919586 0.000000 0.000000
										CHANNELS 3 Xrotation Yrotation Zrotation
										JOINT LeftHandPinky3
										{
											OFFSET 5.233047 0.000000 0.000000
											CHANNELS 3 Xrotation Yrotation Zrotation
											JOINT LeftHandPinky4
											{
												OFFSET 5.571716 0.000000 0.000000
												CHANNELS 3 Xrotation Yrotation Zrotation
												End Site
												{
													OFFSET -3.459808 4.342407 -0.466164
												}
											}
										}
									}
								}
								JOINT LeftHandRing1
								{
									OFFSET 22.726120 -0.094986 -6.500475
									CHANNELS 3 Xrotation Yrotation Zrotation
									JOINT LeftHandRing2
									{
										OFFSET 6.408615 0.000000 0.000000
										CHANNELS 3 Xrotation Yrotation Zrotation
										JOINT LeftHandRing3
										{
											OFFSET 6.150223 0.000000 0.000000
											CHANNELS 3 Xrotation Yrotation Zrotation
											JOINT LeftHandRing4
											{
												OFFSET 6.145386 0.000000 0.000000
												CHANNELS 3 Xrotation Yrotation Zrotation
												End Site
												{
													OFFSET -3.671402 4.923981 -0.202372
												}
											}
										}
									}
								}
								JOINT LeftHandMiddle1
								{
									OFFSET 23.373947 0.000000 0.000001
									CHANNELS 3 Xrotation Yrotation Zrotation
									JOINT LeftHandMiddle2
									{
										OFFSET 6.996567 0.000000 0.000000
										CHANNELS 3 Xrotation Yrotation Zrotation
										JOINT LeftHandMiddle3
										{
											OFFSET 7.015945 0.000000 0.000000
											CHANNELS 3 Xrotation Yrotation Zrotation
											JOINT LeftHandMiddle4
											{
												OFFSET 7.721573 0.000000 0.000000
												CHANNELS 3 Xrotation Yrotation Zrotation
												End Site
												{
													OFFSET -4.651108 6.158463 0.251582
												}
											}
										}
									}
								}
								JOINT LeftHandIndex1
								{
									OFFSET 21.310577 -0.490082 6.209344
									CHANNELS 3 Xrotation Yrotation Zrotation
									JOINT LeftHandIndex2
									{
										OFFSET 7.536453 0.000000 0.000000
										CHANNELS 3 Xrotation Yrotation Zrotation
										JOINT LeftHandIndex3
										{
											OFFSET 7.512344 0.000000 0.000000
											CHANNELS 3 Xrotation Yrotation Zrotation
											JOINT LeftHandIndex4
											{
												OFFSET 10.212402 0.000000 0.000001
												CHANNELS 3 Xrotation Yrotation Zrotation
												End Site
												{
													OFFSET -5.180801 8.690506 1.388433
												}
											}
										}
									}
								}
							}
						}
					}
				}
				JOINT RightShoulder
				{
					OFFSET -17.399500 24.608795 1.168800
					CHANNELS 3 Xrotation Yrotation Zrotation
					JOINT RightArm
					{
						OFFSET -18.980635 5.765305 1.818600
						CHANNELS 3 Xrotation Yrotation Zrotation
						JOINT RightForeArm
						{
							OFFSET -49.290169 0.000000 0.000000
							CHANNELS 3 Xrotation Yrotation Zrotation
							JOINT RightHand
							{
								OFFSET -31.562012 0.000000 0.000000
								CHANNELS 3 Xrotation Yrotation Zrotation
								JOINT RightHandThumb1
								{
									OFFSET -6.133995 -4.388519 7.076070
									CHANNELS 3 Xrotation Yrotation Zrotation
									JOINT RightHandThumb2
									{
										OFFSET -6.037666 -3.485840 3.485847
										CHANNELS 3 Xrotation Yrotation Zrotation
										JOINT RightHandThumb3
										{
											OFFSET -6.496506 -3.750763 3.750761
											CHANNELS 3 Xrotation Yrotation Zrotation
											JOINT RightHandThumb4
											{
												OFFSET -5.616882 -3.242905 3.242910
												CHANNELS 3 Xrotation Yrotation Zrotation
												End Site
												{
													OFFSET 1.254608 7.132141 0.375429
												}
											}
										}
									}
								}
								JOINT RightHandIndex1
								{
									OFFSET -21.310577 -0.490082 6.209344
									CHANNELS 3 Xrotation Yrotation Zrotation
									JOINT RightHandIndex2
									{
										OFFSET -7.536453 0.000000 0.000000
										CHANNELS 3 Xrotation Yrotation Zrotation
										JOINT RightHandIndex3
										{
											OFFSET -7.512344 0.000000 0.000000
											CHANNELS 3 Xrotation Yrotation Zrotation
											JOINT RightHandIndex4
											{
												OFFSET -10.212402 0.000000 0.000001
												CHANNELS 3 Xrotation Yrotation Zrotation
												End Site
												{
													OFFSET 5.180801 8.690506 1.388433
												}
											}
										}
									}
								}
								JOINT RightHandMiddle1
								{
									OFFSET -23.373947 0.000000 0.000001
									CHANNELS 3 Xrotation Yrotation Zrotation
									JOINT RightHandMiddle2
									{
										OFFSET -6.996567 0.000000 0.000000
										CHANNELS 3 Xrotation Yrotation Zrotation
										JOINT RightHandMiddle3
										{
											OFFSET -7.015945 0.000000 0.000000
											CHANNELS 3 Xrotation Yrotation Zrotation
											JOINT RightHandMiddle4
											{
												OFFSET -7.721573 0.000000 0.000000
												CHANNELS 3 Xrotation Yrotation Zrotation
												End Site
												{
													OFFSET 4.651108 6.158463 0.251582
												}
											}
										}
									}
								}
								JOINT RightHandRing1
								{
									OFFSET -22.726120 -0.094986 -6.500475
									CHANNELS 3 Xrotation Yrotation Zrotation
									JOINT RightHandRing2
									{
										OFFSET -6.408615 0.000000 0.000000
										CHANNELS 3 Xrotation Yrotation Zrotation
										JOINT RightHandRing3
										{
											OFFSET -6.150223 0.000000 0.000000
											CHANNELS 3 Xrotation Yrotation Zrotation
											JOINT RightHandRing4
											{
												OFFSET -6.145386 0.000000 0.000000
												CHANNELS 3 Xrotation Yrotation Zrotation
												End Site
												{
													OFFSET 3.671402 4.923981 -0.202372
												}
											}
										}
									}
								}
								JOINT RightHandPinky1
								{
									OFFSET -18.920792 -0.453171 -11.426712
									CHANNELS 3 Xrotation Yrotation Zrotation
									JOINT RightHandPinky2
									{
										OFFSET -4.919586 0.000000 0.000000
										CHANNELS 3 Xrotation Yrotation Zrotation
										JOINT RightHandPinky3
										{
											OFFSET -5.233047 0.000000 0.000000
											CHANNELS 3 Xrotation Yrotation Zrotation
											JOINT RightHandPinky4
											{
												OFFSET -5.571716 0.000000 0.000000
												CHANNELS 3 Xrotation Yrotation Zrotation
												End Site
												{
													OFFSET 3.459808 4.342407 -0.466164
												}
											}
										}
									}
								}
							}
						}
					}
				}
			}
		}
	}
	JOINT LeftUpLeg
	{
		OFFSET 19.899099 -7.885101 -3.429500
		CHANNELS 3 Xrotation Yrotation Zrotation
		JOINT LeftLeg
		{
			OFFSET 1.745560 -36.997807 10.304700
			CHANNELS 3 Xrotation Yrotation Zrotation
			JOINT LeftFoot
			{
				OFFSET -1.745558 -29.803308 -13.615400
				CHANNELS 3 Xrotation Yrotation Zrotation
				JOINT LeftToeBase
				{
					OFFSET 1.181900 -18.539904 15.226099
					CHANNELS 3 Xrotation Yrotation Zrotation
					JOINT LeftToe_End
					{
						OFFSET -0.863701 1.402801 16.534700
						CHANNELS 3 Xrotation Yrotation Zrotation
						End Site
						{
							OFFSET 0.000000 16.616566 0.000000
						}
					}
				}
			}
		}
	}
	JOINT RightUpLeg
	{
		OFFSET -19.899099 -7.885101 -3.429500
		CHANNELS 3 Xrotation Yrotation Zrotation
		JOINT RightLeg
		{
			OFFSET -1.745560 -36.997807 10.304700
			CHANNELS 3 Xrotation Yrotation Zrotation
			JOINT RightFoot
			{
				OFFSET 1.745558 -29.803308 -13.615400
				CHANNELS 3 Xrotation Yrotation Zrotation
				JOINT RightToeBase
				{
					OFFSET -1.181900 -18.539904 15.226099
					CHANNELS 3 Xrotation Yrotation Zrotation
					JOINT RightToe_End
					{
						OFFSET 0.863701 1.402801 16.534700
						CHANNELS 3 Xrotation Yrotation Zrotation
						End Site
						{
							OFFSET 0.000000 16.616566 0.000000
						}
					}
				}
			}
		}
	}
}
MOTION
Frames: 4
Frame Time: 0.033333
-0.857938 136.194000 9.133592 8.823712 6.373838 -179.398798 11.175085 4.685809 -15.111925 -0.900831 0.683304 -2.316888 -0.929855 0.818300 -2.323146 -10.446185 0.727845 -2.846021 -0.595651 -2.328704 3.157636 -0.000001 0.000000 -0.000002 0.954854 1.887567 9.379736 -115.881085 -45.156324 -76.972988 0.000028 -76.900704 0.000004 49.807877 -13.962406 -2.886575 -33.372034 3.999374 9.617700 12.612607 21.414697 -0.933830 2.132147 1.226640 22.669044 0.000004 0.000002 -0.000002 0.881988 5.343627 -30.604309 0.661034 2.705269 -27.457395 0.661025 2.705261 -27.457412 -0.000000 0.000000 -0.000002 0.727266 5.066231 -27.493410 0.565153 2.512337 -25.350959 0.655714 2.695030 -27.344671 -0.000006 0.000000 0.000005 0.388822 4.283656 -19.142522 0.354126 2.007716 -20.003833 0.427248 2.198047 -21.996090 -0.000001 0.000001 0.000004 0.228730 3.739970 -13.599499 0.186148 1.466490 -14.466935 0.186133 1.466488 -14.466933 0.000002 0.000001 0.000003 3.314952 -23.112503 -41.743237 -113.055333 2.700532 38.545251 0.000009 45.361940 -0.000005 61.678145 -25.328986 -70.108900 -75.668927 -21.137359 12.980693 2.987613 -2.608131 -3.706158 -8.886970 3.142874 -14.479617 0.000002 0.000007 -0.000001 4.282725 6.738943 -9.888162 0.017537 -0.404204 4.968189 0.070667 0.809086 -9.983023 0.000002 -0.000005 -0.000002 0.550245 0.501892 -12.372807 0.051440 -0.691003 8.514095 0.029467 0.523657 -6.441820 0.000001 0.000002 -0.000004 0.149108 -1.316180 -11.977615 0.017994 -0.409383 5.032012 0.069760 0.803954 -9.919215 0.000000 0.000001 -0.000005 -15.961792 -5.382219 -12.244131 0.014445 -0.366881 4.508468 0.077298 0.845883 -10.442086 0.000000 0.000004 -0.000003 -127.309385 6.731623 25.839263 116.764270 21.825108 2.913040 44.144298 -11.308046 -0.162583 -0.850408 -0.000006 0.000006 -0.000001 0.000001 0.000002 31.186746 1.073285 -8.004090 30.570499 -5.000426 0.725632 42.563826 4.773951 -2.108612 6.261597 -0.000002 0.000000 0.000001 0.000000 0.000001 
-2.978781 135.784302 12.007567 8.596457 -23.615032 -177.727478 10.989504 1.068884 -14.289995 -1.062508 -0.106581 -2.327054 -1.069162 0.038427 -2.350140 -10.316113 0.562712 -1.562534 0.010271 -0.559045 3.780891 -0.000001 -0.000000 0.000001 0.940130 2.160565 9.706569 -115.381949 -44.880879 -76.225225 0.000346 -77.301083 0.000304 50.825480 -14.373020 -2.414659 -33.372017 3.999388 9.617698 12.612607 21.414684 -0.933818 2.132152 1.226635 22.669026 0.000000 0.000001 -0.000001 0.881990 5.343609 -30.604309 0.661032 2.705270 -27.457405 0.661015 2.705265 -27.457412 0.000003 0.000001 -0.000004 0.727285 5.066234 -27.493420 0.565139 2.512324 -25.350975 0.655717 2.695034 -27.344678 0.000001 -0.000001 -0.000002 0.388842 4.283646 -19.142537 0.354109 2.007719 -20.003831 0.427236 2.198050 -21.996091 -0.000002 0.000002 0.000004 0.228727 3.739965 -13.599510 0.186154 1.466505 -14.466938 0.186140 1.466504 -14.466938 0.000002 0.000005 0.000002 2.439057 -22.774282 -40.929342 -108.873051 -2.464690 35.638209 0.000037 51.369692 -0.000024 68.351752 -22.672659 -64.946589 -77.503400 -21.424357 12.515681 2.750885 -2.810293 -3.395317 -9.145477 3.368231 -14.742844 -0.000001 -0.000001 -0.000001 4.262621 7.374215 -9.313626 0.012817 -0.345693 4.247278 0.067612 0.791548 -9.764268 -0.000000 -0.000003 0.000003 0.651229 1.057970 -11.843669 0.043256 -0.634006 7.807180 0.027563 0.506457 -6.229700 -0.000001 -0.000000 -0.000004 0.250795 -0.815162 -11.465494 0.013493 -0.354645 4.357842 0.067462 0.790643 -9.753316 -0.000000 0.000000 -0.000005 -15.823320 -5.128723 -11.746698 0.012251 -0.338004 4.152832 0.075793 0.837634 -10.339081 -0.000001 -0.000001 0.000000 -126.231322 15.936025 19.660715 115.935016 22.527726 5.609996 41.075808 -8.487471 0.330924 -0.952438 0.000010 0.000009 -0.000002 0.000001 0.000000 22.759927 -6.061778 -3.267895 39.282931 1.417185 -0.623067 21.667629 -11.745900 -6.520403 22.721077 -0.000012 -0.000009 0.000001 -0.000003 0.000001 
-5.423350 135.107849 13.486408 9.573787 -52.621154 -175.398384 10.824540 -1.385172 -13.850648 -1.238771 -0.875040 -2.326687 -1.226029 -0.720528 -2.366458 -10.013290 0.559640 -0.647467 0.572656 1.535677 4.764766 -0.000000 0.000001 -0.000000 0.888937 2.852145 10.538893 -114.171721 -44.162453 -74.354300 0.000164 -78.317920 0.000160 53.434585 -15.355869 -1.154640 -33.372034 3.999388 9.617695 12.612619 21.414697 -0.933808 2.132162 1.226617 22.669044 0.000000 -0.000000 -0.000001 0.881996 5.343626 -30.604309 0.661028 2.705266 -27.457405 0.661017 2.705265 -27.457419 -0.000003 0.000002 -0.000002 0.727275 5.066233 -27.493410 0.565144 2.512344 -25.350973 0.655712 2.695018 -27.344667 -0.000003 -0.000000 0.000002 0.388829 4.283660 -19.142534 0.354118 2.007703 -20.003840 0.427233 2.198045 -21.996107 0.000001 0.000000 0.000004 0.228731 3.739954 -13.599493 0.186151 1.466508 -14.466921 0.186139 1.466500 -14.466949 -0.000003 0.000003 0.000001 1.715891 -22.434798 -40.562772 -105.725994 -7.054197 31.960634 0.000063 56.237974 -0.000028 72.343192 -19.658876 -61.194069 -75.725351 -21.146051 12.967515 2.980303 -2.614359 -3.696645 -8.894953 3.149791 -14.487661 -0.000000 -0.000004 0.000001 4.281861 6.758418 -9.870398 0.017378 -0.402419 4.946084 0.070567 0.808535 -9.976307 -0.000002 -0.000001 -0.000003 0.553403 0.518917 -12.356494 0.051170 -0.689246 8.492418 0.029419 0.523130 -6.435315 0.000001 0.000000 -0.000001 0.152277 -1.300857 -11.961833 0.017836 -0.407706 5.011331 0.069705 0.803571 -9.914117 -0.000000 0.000001 0.000000 -15.957603 -5.374512 -12.228806 0.014374 -0.365999 4.497562 0.077260 0.845634 -10.438924 -0.000001 0.000001 -0.000001 -124.809099 22.201224 21.366295 111.428526 23.361579 4.321828 40.562851 -6.938029 9.927494 -0.410048 -0.000026 -0.000015 -0.000001 -0.000002 0.000001 27.185261 -12.075535 -2.064183 33.267799 2.636499 -2.203833 10.854346 -24.549022 -11.188908 34.542189 0.000023 0.000014 -0.000000 0.000000 0.000002 
-7.876351 134.851974 14.483507 17.480162 -78.650236 -166.645428 10.265657 -3.342722 -13.596172 -1.502578 -1.497052 -2.246703 -1.476205 -1.336789 -2.302493 -9.502606 1.209517 -1.178490 0.987649 4.462615 6.571954 0.000000 0.000000 0.000000 0.789399 3.773646 11.659000 -112.679659 -43.162687 -71.911496 0.000148 -79.679518 0.000152 56.982144 -16.529104 0.664031 -33.372014 3.999382 9.617719 12.612603 21.414690 -0.933831 2.132148 1.226610 22.669041 0.000002 0.000001 -0.000002 0.882010 5.343618 -30.604295 0.661020 2.705267 -27.457401 0.661022 2.705272 -27.457396 0.000001 0.000001 -0.000000 0.727285 5.066227 -27.493376 0.565143 2.512339 -25.350969 0.655728 2.695022 -27.344669 -0.000004 0.000001 0.000002 0.388841 4.283657 -19.142491 0.354128 2.007716 -20.003847 0.427219 2.198052 -21.996107 0.000003 -0.000002 0.000004 0.228743 3.739964 -13.599506 0.186139 1.466502 -14.466913 0.186145 1.466510 -14.466930 -0.000002 0.000005 0.000002 2.569408 -22.432937 -38.590914 -106.974279 -9.106137 28.591737 -0.000006 58.314536 -0.000002 66.084191 -17.583357 -61.954734 -76.797629 -22.110202 12.122557 2.856521 -2.688996 -3.476964 -8.976224 3.224921 -14.477371 -0.000002 -0.000002 0.000002 4.455535 7.145702 -9.583742 0.014388 -0.366181 4.499711 0.068672 0.797670 -9.840867 -0.000000 -0.000003 0.000001 0.610962 0.834005 -12.037918 0.046116 -0.654449 8.060700 0.028221 0.512491 -6.304029 -0.000000 0.000002 -0.000004 0.211453 -1.013506 -11.655538 0.015000 -0.373867 4.594555 0.068269 0.795314 -9.811469 0.000001 0.000000 -0.000005 -15.791730 -5.217940 -11.953154 0.013010 -0.348113 4.277355 0.076309 0.840517 -10.375144 0.000002 -0.000004 0.000004 -121.782737 32.176751 21.590759 105.766511 26.227223 3.425404 36.094681 -4.600088 19.291997 0.011859 0.000001 0.000007 0.000001 0.000000 0.000001 29.926675 -17.736717 -0.206811 31.201383 1.745766 -3.769108 8.029603 -28.030229 -9.505361 37.806665 0.000004 0.000013 0.000000 0.000001 -0.000001 
